<svg width="674" height="675" xmlns="http://www.w3.org/2000/svg" xmlns:xlink="http://www.w3.org/1999/xlink" xml:space="preserve" overflow="hidden"><g transform="translate(-1144 -900)"><path d="M1167 1027.67C1167 969.862 1213.86 923 1271.67 923L1690.33 923C1748.14 923 1795 969.862 1795 1027.67L1795 1447.33C1795 1505.14 1748.14 1552 1690.33 1552L1271.67 1552C1213.86 1552 1167 1505.14 1167 1447.33Z" stroke="#163E64" stroke-width="45.8333" stroke-miterlimit="8" fill="#373F47" fill-rule="evenodd"/><path d="M1481 1433 1481 1433 1481 1433ZM1481 1044C1587.59 1044 1674 1131.08 1674 1238.5L1674 1238.5 1613.39 1238.5 1613.39 1238.5C1613.39 1164.65 1554.12 1104.79 1481 1104.79 1407.88 1104.79 1348.61 1164.65 1348.61 1238.5 1348.61 1307.73 1400.71 1364.68 1467.46 1371.52L1478.2 1372.07 1478.2 1432.86 1461.27 1432C1363.95 1422.04 1288 1339.21 1288 1238.5 1288 1131.08 1374.41 1044 1481 1044Z" stroke="#FFFFFF" stroke-width="13.75" stroke-miterlimit="8" fill="#46B1E1" fill-rule="evenodd"/><path d="M1427 1238.5C1427 1208.4 1451.18 1184 1481 1184 1510.82 1184 1535 1208.4 1535 1238.5 1535 1268.6 1510.82 1293 1481 1293 1451.18 1293 1427 1268.6 1427 1238.5Z" stroke="#FFFFFF" stroke-width="13.75" stroke-miterlimit="8" fill="#46B1E1" fill-rule="evenodd"/><path d="M1480.88 973C1626.75 973 1745 1091.42 1745 1237.5 1745 1383.58 1626.75 1502 1480.88 1502 1344.13 1502 1231.65 1397.92 1218.13 1264.54L1217 1242.17 1291.95 1242.17 1292.69 1256.87C1302.37 1352.4 1382.94 1426.95 1480.88 1426.95 1585.36 1426.95 1670.05 1342.13 1670.05 1237.5 1670.05 1132.87 1585.36 1048.05 1480.88 1048.05L1479.95 1048.1 1479.95 973.047Z" stroke="#FFFFFF" stroke-width="13.75" stroke-miterlimit="8" fill="#46B1E1" fill-rule="evenodd"/></g></svg>